#!OML:ASF F:\VICON\USERDATA\INSTALL\rory3\rory3.ASF
:FULLY-SPECIFIED
:DEGREES
2758
root -1.30624 17.538 -0.948609 0.40569 -9.02152 2.14913
lowerback 2.15 -3.28915 -4.96885
upperback -0.581421 -4.4921 2.59596
thorax -1.21356 -2.20139 5.5917
lowerneck -20.4387 -8.87736 -14.0992
upperneck 20.4466 -10.3572 9.44513
head 11.2794 -4.74327 4.05804
rclavicle 8.36262e-014 -2.54444e-014
rhumerus -33.5638 -2.42884 -70.9262
rradius 42.8538
rwrist 25.0274
rhand -26.823 6.43788
rfingers 7.12502
rthumb -0.24915 -23.5417
lclavicle 8.36262e-014 -2.54444e-014
lhumerus -31.1371 1.91123 81.0004
lradius 45.7173
lwrist -11.8515
lhand -14.5542 18.0572
lfingers 7.12502
lthumb 11.5946 47.7164
rfemur -12.5761 7.29307 5.77841
rtibia 30.7406
rfoot -16.5319 -3.30302
rtoes -3.90535
lfemur -3.85343 3.52826 -15.981
ltibia 26.1874
lfoot -15.888 14.8125
ltoes -23.637
2759
root -1.30537 17.5389 -0.944234 0.487086 -9.10897 2.26957
lowerback 2.03562 -3.3069 -5.00571
upperback -0.551289 -4.51192 2.56755
thorax -1.11516 -2.21502 5.57374
lowerneck -20.4054 -8.86266 -14.111
upperneck 20.3963 -10.3376 9.4624
head 11.2535 -4.73413 4.07024
rclavicle 9.92681e-015 -1.51076e-014
rhumerus -33.4676 -2.7304 -70.8751
rradius 42.8702
rwrist 25.3316
rhand -26.58 6.73704
rfingers 7.12502
rthumb -0.0144728 -23.2427
lclavicle 9.92681e-015 -1.51076e-014
lhumerus -31.1816 2.05198 80.9707
lradius 45.7347
lwrist -12.0802
lhand -14.2996 18.2658
lfingers 7.12502
lthumb 11.8402 47.9111
rfemur -12.7171 7.2315 5.61446
rtibia 30.7772
rfoot -16.4724 -3.19405
rtoes -4.04383
lfemur -3.90533 3.48914 -16.1443
ltibia 26.1595
lfoot -15.8855 14.9126
ltoes -23.5442
2760
root -1.30663 17.5402 -0.940114 0.572744 -9.22143 2.29378
lowerback 1.98444 -3.31664 -4.98987
upperback -0.547665 -4.52208 2.5862
thorax -1.08106 -2.22145 5.58063
lowerneck -20.3847 -8.83655 -14.1276
upperneck 20.4089 -10.2945 9.4451
head 11.2485 -4.71875 4.07511
rclavicle 4.47017e-014 -1.98785e-014
rhumerus -33.3998 -2.84897 -70.8395
rradius 42.8233
rwrist 25.4353
rhand -26.5897 7.05459
rfingers 7.12502
rthumb -0.0238273 -22.9252
lclavicle 4.47017e-014 -1.98785e-014
lhumerus -31.2622 2.20906 80.9601
lradius 45.6794
lwrist -12.1819
lhand -14.104 18.4356
lfingers 7.12502
lthumb 12.0289 48.0699
rfemur -12.8549 7.29373 5.57711
rtibia 30.8185
rfoot -16.4665 -3.14861
rtoes -3.91196
lfemur -3.95565 3.50494 -16.1837
ltibia 26.1119
lfoot -15.8052 15.019
ltoes -23.736
2761
root -1.30757 17.5408 -0.937034 0.592405 -9.35645 2.29655
lowerback 2.066 -3.30126 -4.97591
upperback -0.565092 -4.50457 2.61236
thorax -1.14608 -2.21023 5.60635
lowerneck -20.3353 -8.81043 -14.1472
upperneck 20.4426 -10.2693 9.47291
head 11.2514 -4.70753 4.09509
rclavicle -4.22169e-014 1.51076e-014
rhumerus -33.4499 -2.83786 -70.8187
rradius 42.8235
rwrist 25.4387
rhand -26.6646 7.13354
rfingers 7.12502
rthumb -0.0961715 -22.8462
lclavicle -4.22169e-014 1.51076e-014
lhumerus -31.3338 2.28435 80.9652
lradius 45.5303
lwrist -12.2256
lhand -14.1654 18.255
lfingers 7.12502
lthumb 11.9696 47.8928
rfemur -12.9356 7.35682 5.57504
rtibia 30.8637
rfoot -16.4677 -3.13522
rtoes -4.23363
lfemur -3.9277 3.60119 -16.1884
ltibia 26.0611
lfoot -15.7902 15.1098
ltoes -23.7392
